<mxfile host="app.diagrams.net" modified="2021-02-15T10:27:33.238Z" agent="5.0 (X11)" etag="cxURdfsl-c_fSwJ3cQ7y" version="14.3.1" type="github">
  <diagram name="Page-1" id="b5b7bab2-c9e2-2cf4-8b2a-24fd1a2a6d21">
    <mxGraphModel dx="1598" dy="946" grid="1" gridSize="10" guides="1" tooltips="1" connect="1" arrows="1" fold="1" page="1" pageScale="1" pageWidth="827" pageHeight="1169" background="#ffffff" math="0" shadow="0">
      <root>
        <mxCell id="0" />
        <mxCell id="1" parent="0" />
        <mxCell id="6e0c8c40b5770093-72" value="" style="shape=folder;fontStyle=1;spacingTop=10;tabWidth=194;tabHeight=22;tabPosition=left;html=1;rounded=0;shadow=0;comic=0;labelBackgroundColor=none;strokeWidth=1;fillColor=none;fontFamily=Verdana;fontSize=10;align=center;" parent="1" vertex="1">
          <mxGeometry x="310" y="114.5" width="1001" height="1045" as="geometry" />
        </mxCell>
        <mxCell id="6e0c8c40b5770093-30" value="" style="group" parent="1" vertex="1" connectable="0">
          <mxGeometry x="960" y="360" width="320" height="400" as="geometry" />
        </mxCell>
        <mxCell id="6e0c8c40b5770093-24" value="" style="group" parent="6e0c8c40b5770093-30" vertex="1" connectable="0">
          <mxGeometry width="320" height="400.00000000000006" as="geometry" />
        </mxCell>
        <mxCell id="6e0c8c40b5770093-25" value="" style="shape=folder;fontStyle=1;spacingTop=10;tabWidth=123;tabHeight=24;tabPosition=left;html=1;rounded=0;shadow=0;comic=0;labelBackgroundColor=none;strokeWidth=1;fontFamily=Verdana;fontSize=10;align=center;" parent="6e0c8c40b5770093-24" vertex="1">
          <mxGeometry width="320" height="400.00000000000006" as="geometry" />
        </mxCell>
        <mxCell id="6e0c8c40b5770093-27" value="MiniO Image" style="shape=folder;fontStyle=1;spacingTop=10;tabWidth=50;tabHeight=17;tabPosition=left;html=1;rounded=0;shadow=0;comic=0;labelBackgroundColor=none;strokeWidth=1;fontFamily=Verdana;fontSize=10;align=center;" parent="6e0c8c40b5770093-24" vertex="1">
          <mxGeometry x="160" y="65.83" width="107.91" height="58.33" as="geometry" />
        </mxCell>
        <mxCell id="RUcSScGEnjRAHkHzcu0g-60" style="edgeStyle=elbowEdgeStyle;rounded=0;jumpSize=10;orthogonalLoop=1;jettySize=auto;elbow=vertical;html=1;entryX=0.25;entryY=0.325;entryDx=0;entryDy=0;entryPerimeter=0;dashed=1;startArrow=open;startFill=0;startSize=10;endArrow=open;endFill=0;endSize=10;targetPerimeterSpacing=0;strokeWidth=1;" edge="1" parent="6e0c8c40b5770093-24" source="6e0c8c40b5770093-31" target="6e0c8c40b5770093-25">
          <mxGeometry relative="1" as="geometry">
            <Array as="points">
              <mxPoint x="120" y="210" />
            </Array>
          </mxGeometry>
        </mxCell>
        <mxCell id="6e0c8c40b5770093-31" value="MiniO Video" style="shape=folder;fontStyle=1;spacingTop=10;tabWidth=50;tabHeight=17;tabPosition=left;html=1;rounded=0;shadow=0;comic=0;labelBackgroundColor=none;strokeWidth=1;fontFamily=Verdana;fontSize=10;align=center;" parent="6e0c8c40b5770093-24" vertex="1">
          <mxGeometry x="160" y="170.83" width="107.91" height="58.33" as="geometry" />
        </mxCell>
        <mxCell id="6e0c8c40b5770093-28" value="MiniO Other" style="shape=folder;fontStyle=1;spacingTop=10;tabWidth=50;tabHeight=17;tabPosition=left;html=1;rounded=0;shadow=0;comic=0;labelBackgroundColor=none;strokeWidth=1;fontFamily=Verdana;fontSize=10;align=center;" parent="6e0c8c40b5770093-24" vertex="1">
          <mxGeometry x="160" y="283.33" width="107.91" height="58.33" as="geometry" />
        </mxCell>
        <mxCell id="RUcSScGEnjRAHkHzcu0g-9" value="Image storage CDN" style="text;html=1;align=left;verticalAlign=top;spacingTop=-4;fontSize=10;fontFamily=Verdana" vertex="1" parent="6e0c8c40b5770093-24">
          <mxGeometry width="180.86956521739128" height="21.25" as="geometry" />
        </mxCell>
        <mxCell id="RUcSScGEnjRAHkHzcu0g-58" style="edgeStyle=elbowEdgeStyle;rounded=0;jumpSize=10;orthogonalLoop=1;jettySize=auto;elbow=vertical;html=1;entryX=0;entryY=0;entryDx=0;entryDy=37.665000000000006;entryPerimeter=0;dashed=1;startArrow=open;startFill=0;startSize=10;endArrow=open;endFill=0;endSize=10;targetPerimeterSpacing=0;strokeWidth=1;" edge="1" parent="6e0c8c40b5770093-24" source="RUcSScGEnjRAHkHzcu0g-56" target="6e0c8c40b5770093-27">
          <mxGeometry relative="1" as="geometry" />
        </mxCell>
        <mxCell id="RUcSScGEnjRAHkHzcu0g-59" style="edgeStyle=elbowEdgeStyle;rounded=0;jumpSize=10;orthogonalLoop=1;jettySize=auto;elbow=vertical;html=1;entryX=0;entryY=0;entryDx=0;entryDy=37.665000000000006;entryPerimeter=0;dashed=1;startArrow=open;startFill=0;startSize=10;endArrow=open;endFill=0;endSize=10;targetPerimeterSpacing=0;strokeWidth=1;" edge="1" parent="6e0c8c40b5770093-24" source="RUcSScGEnjRAHkHzcu0g-56" target="6e0c8c40b5770093-28">
          <mxGeometry relative="1" as="geometry">
            <Array as="points">
              <mxPoint x="40" y="321" />
            </Array>
          </mxGeometry>
        </mxCell>
        <mxCell id="RUcSScGEnjRAHkHzcu0g-56" value="Nginx" style="shape=folder;fontStyle=1;spacingTop=10;tabWidth=50;tabHeight=17;tabPosition=left;html=1;rounded=0;shadow=0;comic=0;labelBackgroundColor=none;strokeColor=#000000;strokeWidth=1;fillColor=#ffffff;fontFamily=Verdana;fontSize=10;fontColor=#000000;align=center;" vertex="1" parent="6e0c8c40b5770093-24">
          <mxGeometry x="20" y="65.83" width="112" height="60" as="geometry" />
        </mxCell>
        <mxCell id="6e0c8c40b5770093-67" style="edgeStyle=none;rounded=0;html=1;entryX=0.43;entryY=0.173;entryPerimeter=0;dashed=1;labelBackgroundColor=none;startFill=0;endArrow=open;endFill=0;endSize=10;fontFamily=Verdana;fontSize=10;exitX=0.084;exitY=1.019;exitDx=0;exitDy=0;exitPerimeter=0;startArrow=open;startSize=10;" parent="1" source="6e0c8c40b5770093-33" target="6e0c8c40b5770093-47" edge="1">
          <mxGeometry relative="1" as="geometry">
            <Array as="points">
              <mxPoint x="400" y="880" />
            </Array>
          </mxGeometry>
        </mxCell>
        <mxCell id="6e0c8c40b5770093-33" value="" style="shape=folder;fontStyle=1;spacingTop=10;tabWidth=123;tabHeight=24;tabPosition=left;html=1;rounded=0;shadow=0;comic=0;labelBackgroundColor=none;strokeColor=#000000;strokeWidth=1;fillColor=#ffffff;fontFamily=Verdana;fontSize=10;fontColor=#000000;align=center;" parent="1" vertex="1">
          <mxGeometry x="359.5" y="480" width="520.5" height="240" as="geometry" />
        </mxCell>
        <mxCell id="6e0c8c40b5770093-64" style="edgeStyle=elbowEdgeStyle;rounded=0;html=1;entryX=0.559;entryY=0.251;entryPerimeter=0;dashed=1;labelBackgroundColor=none;startFill=0;endArrow=open;endFill=0;endSize=10;fontFamily=Verdana;fontSize=10;" parent="1" source="6e0c8c40b5770093-42" target="6e0c8c40b5770093-44" edge="1">
          <mxGeometry relative="1" as="geometry" />
        </mxCell>
        <mxCell id="6e0c8c40b5770093-65" style="edgeStyle=none;rounded=0;html=1;dashed=1;labelBackgroundColor=none;startFill=0;endArrow=open;endFill=0;endSize=10;fontFamily=Verdana;fontSize=10;entryX=-0.003;entryY=0.411;entryPerimeter=0;" parent="1" source="6e0c8c40b5770093-42" target="6e0c8c40b5770093-45" edge="1">
          <mxGeometry relative="1" as="geometry" />
        </mxCell>
        <mxCell id="6e0c8c40b5770093-66" style="edgeStyle=none;rounded=0;html=1;dashed=1;labelBackgroundColor=none;startFill=0;endArrow=open;endFill=0;endSize=10;fontFamily=Verdana;fontSize=10;entryX=1.013;entryY=0.444;entryPerimeter=0;" parent="1" source="6e0c8c40b5770093-42" target="6e0c8c40b5770093-43" edge="1">
          <mxGeometry relative="1" as="geometry" />
        </mxCell>
        <mxCell id="6e0c8c40b5770093-42" value="&lt;div&gt;&amp;nbsp;Balancer&lt;/div&gt;" style="shape=folder;fontStyle=1;spacingTop=10;tabWidth=50;tabHeight=17;tabPosition=left;html=1;rounded=0;shadow=0;comic=0;labelBackgroundColor=none;strokeColor=#000000;strokeWidth=1;fillColor=#ffffff;fontFamily=Verdana;fontSize=10;fontColor=#000000;align=center;" parent="1" vertex="1">
          <mxGeometry x="566.5" y="530" width="112" height="70" as="geometry" />
        </mxCell>
        <mxCell id="6e0c8c40b5770093-43" value="PHP 1" style="shape=folder;fontStyle=1;spacingTop=10;tabWidth=50;tabHeight=17;tabPosition=left;html=1;rounded=0;shadow=0;comic=0;labelBackgroundColor=none;strokeColor=#000000;strokeWidth=1;fillColor=#ffffff;fontFamily=Verdana;fontSize=10;fontColor=#000000;align=center;" parent="1" vertex="1">
          <mxGeometry x="402.5" y="630" width="112" height="70" as="geometry" />
        </mxCell>
        <mxCell id="6e0c8c40b5770093-44" value="PHP 2" style="shape=folder;fontStyle=1;spacingTop=10;tabWidth=50;tabHeight=17;tabPosition=left;html=1;rounded=0;shadow=0;comic=0;labelBackgroundColor=none;strokeColor=#000000;strokeWidth=1;fillColor=#ffffff;fontFamily=Verdana;fontSize=10;fontColor=#000000;align=center;" parent="1" vertex="1">
          <mxGeometry x="566.5" y="630" width="112" height="70" as="geometry" />
        </mxCell>
        <mxCell id="6e0c8c40b5770093-45" value="PHP 3" style="shape=folder;fontStyle=1;spacingTop=10;tabWidth=50;tabHeight=17;tabPosition=left;html=1;rounded=0;shadow=0;comic=0;labelBackgroundColor=none;strokeColor=#000000;strokeWidth=1;fillColor=#ffffff;fontFamily=Verdana;fontSize=10;fontColor=#000000;align=center;" parent="1" vertex="1">
          <mxGeometry x="718.5" y="630" width="112" height="70" as="geometry" />
        </mxCell>
        <mxCell id="6e0c8c40b5770093-47" value="" style="shape=folder;fontStyle=1;spacingTop=10;tabWidth=123;tabHeight=24;tabPosition=left;html=1;rounded=0;shadow=0;comic=0;labelBackgroundColor=none;strokeWidth=1;fontFamily=Verdana;fontSize=10;align=center;" parent="1" vertex="1">
          <mxGeometry x="359.5" y="990" width="332" height="130" as="geometry" />
        </mxCell>
        <mxCell id="6e0c8c40b5770093-49" value="Worker" style="shape=folder;fontStyle=1;spacingTop=10;tabWidth=50;tabHeight=17;tabPosition=left;html=1;rounded=0;shadow=0;comic=0;labelBackgroundColor=none;strokeWidth=1;fontFamily=Verdana;fontSize=10;align=center;" parent="1" vertex="1">
          <mxGeometry x="377.5" y="1030" width="112" height="70" as="geometry" />
        </mxCell>
        <mxCell id="6e0c8c40b5770093-50" value="Worker" style="shape=folder;fontStyle=1;spacingTop=10;tabWidth=50;tabHeight=17;tabPosition=left;html=1;rounded=0;shadow=0;comic=0;labelBackgroundColor=none;strokeWidth=1;fontFamily=Verdana;fontSize=10;align=center;" parent="1" vertex="1">
          <mxGeometry x="546.5" y="1030" width="112" height="70" as="geometry" />
        </mxCell>
        <mxCell id="6e0c8c40b5770093-73" value="RGC sites APP arkhitecture" style="text;html=1;align=left;verticalAlign=top;spacingTop=-4;fontSize=10;fontFamily=Verdana" parent="1" vertex="1">
          <mxGeometry x="327.5" y="114.5" width="130" height="20" as="geometry" />
        </mxCell>
        <mxCell id="RUcSScGEnjRAHkHzcu0g-7" value="Back -end" style="text;html=1;align=left;verticalAlign=top;spacingTop=-4;fontSize=10;fontFamily=Verdana" vertex="1" parent="1">
          <mxGeometry x="360.5" y="480" width="120" height="25.5" as="geometry" />
        </mxCell>
        <mxCell id="RUcSScGEnjRAHkHzcu0g-10" value="" style="group" vertex="1" connectable="0" parent="1">
          <mxGeometry x="960" y="160" width="320" height="160" as="geometry" />
        </mxCell>
        <mxCell id="RUcSScGEnjRAHkHzcu0g-11" value="" style="shape=folder;fontStyle=1;spacingTop=10;tabWidth=123;tabHeight=24;tabPosition=left;html=1;rounded=0;shadow=0;comic=0;labelBackgroundColor=none;strokeWidth=1;fontFamily=Verdana;fontSize=10;align=center;" vertex="1" parent="RUcSScGEnjRAHkHzcu0g-10">
          <mxGeometry width="320" height="160" as="geometry" />
        </mxCell>
        <mxCell id="RUcSScGEnjRAHkHzcu0g-12" value="Website" style="shape=folder;fontStyle=1;spacingTop=10;tabWidth=50;tabHeight=17;tabPosition=left;html=1;rounded=0;shadow=0;comic=0;labelBackgroundColor=none;strokeWidth=1;fontFamily=Verdana;fontSize=10;align=center;" vertex="1" parent="RUcSScGEnjRAHkHzcu0g-10">
          <mxGeometry x="20.57142857142857" y="49.23076923076923" width="128.00000000000003" height="86.15384615384616" as="geometry" />
        </mxCell>
        <mxCell id="RUcSScGEnjRAHkHzcu0g-13" value="App" style="shape=folder;fontStyle=1;spacingTop=10;tabWidth=50;tabHeight=17;tabPosition=left;html=1;rounded=0;shadow=0;comic=0;labelBackgroundColor=none;strokeWidth=1;fontFamily=Verdana;fontSize=10;align=center;" vertex="1" parent="RUcSScGEnjRAHkHzcu0g-10">
          <mxGeometry x="169.14285714285714" y="49.23076923076923" width="128.00000000000003" height="86.15384615384616" as="geometry" />
        </mxCell>
        <mxCell id="RUcSScGEnjRAHkHzcu0g-14" value="Client side" style="text;html=1;align=left;verticalAlign=top;spacingTop=-4;fontSize=10;fontFamily=Verdana" vertex="1" parent="RUcSScGEnjRAHkHzcu0g-10">
          <mxGeometry width="102.85714285714285" height="31.384615384615387" as="geometry" />
        </mxCell>
        <mxCell id="RUcSScGEnjRAHkHzcu0g-21" style="edgeStyle=elbowEdgeStyle;rounded=0;orthogonalLoop=1;jettySize=auto;elbow=vertical;html=1;dashed=1;endArrow=open;endFill=0;endSize=10;entryX=0.644;entryY=1.001;entryDx=0;entryDy=0;entryPerimeter=0;startArrow=open;startFill=0;startSize=10;" edge="1" parent="1" source="6e0c8c40b5770093-25" target="RUcSScGEnjRAHkHzcu0g-25">
          <mxGeometry relative="1" as="geometry">
            <mxPoint x="687" y="400" as="targetPoint" />
            <mxPoint x="1040" y="480" as="sourcePoint" />
            <Array as="points">
              <mxPoint x="870" y="480" />
              <mxPoint x="650" y="480" />
              <mxPoint x="720" y="440" />
              <mxPoint x="670" y="470" />
              <mxPoint x="670" y="460" />
              <mxPoint x="950" y="460" />
              <mxPoint x="700" y="460" />
              <mxPoint x="660" y="460" />
              <mxPoint x="666" y="450" />
              <mxPoint x="680" y="460" />
              <mxPoint x="660" y="470" />
              <mxPoint x="670" y="470" />
              <mxPoint x="650" y="460" />
              <mxPoint x="850" y="460" />
            </Array>
          </mxGeometry>
        </mxCell>
        <mxCell id="RUcSScGEnjRAHkHzcu0g-36" style="edgeStyle=elbowEdgeStyle;rounded=0;orthogonalLoop=1;jettySize=auto;elbow=vertical;html=1;entryX=0.476;entryY=0.108;entryDx=0;entryDy=0;entryPerimeter=0;dashed=1;endArrow=open;endFill=0;endSize=10;startArrow=open;startFill=0;targetPerimeterSpacing=0;exitX=0.471;exitY=1.016;exitDx=0;exitDy=0;exitPerimeter=0;startSize=10;" edge="1" parent="1" source="RUcSScGEnjRAHkHzcu0g-25" target="6e0c8c40b5770093-33">
          <mxGeometry relative="1" as="geometry">
            <Array as="points">
              <mxPoint x="622" y="453" />
            </Array>
          </mxGeometry>
        </mxCell>
        <mxCell id="RUcSScGEnjRAHkHzcu0g-49" style="edgeStyle=elbowEdgeStyle;rounded=0;jumpSize=10;orthogonalLoop=1;jettySize=auto;elbow=vertical;html=1;dashed=1;startArrow=open;startFill=0;startSize=10;endArrow=open;endFill=0;endSize=10;targetPerimeterSpacing=0;strokeWidth=1;" edge="1" parent="1" source="RUcSScGEnjRAHkHzcu0g-25" target="RUcSScGEnjRAHkHzcu0g-45">
          <mxGeometry relative="1" as="geometry">
            <Array as="points">
              <mxPoint x="1300" y="350" />
              <mxPoint x="1220" y="980" />
              <mxPoint x="1300" y="630" />
              <mxPoint x="910" y="340" />
              <mxPoint x="1050" y="790" />
              <mxPoint x="1050" y="340" />
              <mxPoint x="880" y="370" />
              <mxPoint x="960" y="800" />
              <mxPoint x="910" y="320" />
              <mxPoint x="870" y="470" />
            </Array>
          </mxGeometry>
        </mxCell>
        <mxCell id="RUcSScGEnjRAHkHzcu0g-25" value="" style="shape=folder;fontStyle=1;spacingTop=10;tabWidth=123;tabHeight=24;tabPosition=left;html=1;rounded=0;shadow=0;comic=0;labelBackgroundColor=none;strokeColor=#000000;strokeWidth=1;fillColor=#ffffff;fontFamily=Verdana;fontSize=10;fontColor=#000000;align=center;" vertex="1" parent="1">
          <mxGeometry x="364" y="160" width="516" height="240" as="geometry" />
        </mxCell>
        <mxCell id="RUcSScGEnjRAHkHzcu0g-26" style="edgeStyle=elbowEdgeStyle;rounded=0;html=1;entryX=0.559;entryY=0.251;entryPerimeter=0;dashed=1;labelBackgroundColor=none;startFill=0;endArrow=open;endFill=0;endSize=10;fontFamily=Verdana;fontSize=10;" edge="1" parent="1" source="RUcSScGEnjRAHkHzcu0g-29" target="RUcSScGEnjRAHkHzcu0g-31">
          <mxGeometry relative="1" as="geometry" />
        </mxCell>
        <mxCell id="RUcSScGEnjRAHkHzcu0g-27" style="edgeStyle=none;rounded=0;html=1;dashed=1;labelBackgroundColor=none;startFill=0;endArrow=open;endFill=0;endSize=10;fontFamily=Verdana;fontSize=10;entryX=-0.003;entryY=0.411;entryPerimeter=0;" edge="1" parent="1" source="RUcSScGEnjRAHkHzcu0g-29" target="RUcSScGEnjRAHkHzcu0g-32">
          <mxGeometry relative="1" as="geometry" />
        </mxCell>
        <mxCell id="RUcSScGEnjRAHkHzcu0g-28" style="edgeStyle=none;rounded=0;html=1;dashed=1;labelBackgroundColor=none;startFill=0;endArrow=open;endFill=0;endSize=10;fontFamily=Verdana;fontSize=10;entryX=1.013;entryY=0.444;entryPerimeter=0;" edge="1" parent="1" source="RUcSScGEnjRAHkHzcu0g-29" target="RUcSScGEnjRAHkHzcu0g-30">
          <mxGeometry relative="1" as="geometry" />
        </mxCell>
        <mxCell id="RUcSScGEnjRAHkHzcu0g-29" value="&lt;div&gt;Balancer&lt;/div&gt;" style="shape=folder;fontStyle=1;spacingTop=10;tabWidth=50;tabHeight=17;tabPosition=left;html=1;rounded=0;shadow=0;comic=0;labelBackgroundColor=none;strokeColor=#000000;strokeWidth=1;fillColor=#ffffff;fontFamily=Verdana;fontSize=10;fontColor=#000000;align=center;" vertex="1" parent="1">
          <mxGeometry x="565.5" y="210" width="112" height="70" as="geometry" />
        </mxCell>
        <mxCell id="RUcSScGEnjRAHkHzcu0g-30" value="Nginx 1" style="shape=folder;fontStyle=1;spacingTop=10;tabWidth=50;tabHeight=17;tabPosition=left;html=1;rounded=0;shadow=0;comic=0;labelBackgroundColor=none;strokeColor=#000000;strokeWidth=1;fillColor=#ffffff;fontFamily=Verdana;fontSize=10;fontColor=#000000;align=center;" vertex="1" parent="1">
          <mxGeometry x="401.5" y="310" width="112" height="70" as="geometry" />
        </mxCell>
        <mxCell id="RUcSScGEnjRAHkHzcu0g-31" value="Nginx 2" style="shape=folder;fontStyle=1;spacingTop=10;tabWidth=50;tabHeight=17;tabPosition=left;html=1;rounded=0;shadow=0;comic=0;labelBackgroundColor=none;strokeColor=#000000;strokeWidth=1;fillColor=#ffffff;fontFamily=Verdana;fontSize=10;fontColor=#000000;align=center;" vertex="1" parent="1">
          <mxGeometry x="565.5" y="310" width="112" height="70" as="geometry" />
        </mxCell>
        <mxCell id="RUcSScGEnjRAHkHzcu0g-32" value="Nginx 3" style="shape=folder;fontStyle=1;spacingTop=10;tabWidth=50;tabHeight=17;tabPosition=left;html=1;rounded=0;shadow=0;comic=0;labelBackgroundColor=none;strokeColor=#000000;strokeWidth=1;fillColor=#ffffff;fontFamily=Verdana;fontSize=10;fontColor=#000000;align=center;" vertex="1" parent="1">
          <mxGeometry x="717.5" y="310" width="112" height="70" as="geometry" />
        </mxCell>
        <mxCell id="RUcSScGEnjRAHkHzcu0g-33" value="Front -end" style="text;html=1;align=left;verticalAlign=top;spacingTop=-4;fontSize=10;fontFamily=Verdana" vertex="1" parent="1">
          <mxGeometry x="366.5" y="160" width="120" height="25.5" as="geometry" />
        </mxCell>
        <mxCell id="RUcSScGEnjRAHkHzcu0g-39" style="edgeStyle=elbowEdgeStyle;rounded=0;jumpSize=10;orthogonalLoop=1;jettySize=auto;elbow=vertical;html=1;dashed=1;startArrow=open;startFill=0;startSize=10;endArrow=open;endFill=0;endSize=10;targetPerimeterSpacing=0;strokeWidth=1;" edge="1" parent="1" source="RUcSScGEnjRAHkHzcu0g-11" target="RUcSScGEnjRAHkHzcu0g-25">
          <mxGeometry relative="1" as="geometry" />
        </mxCell>
        <mxCell id="RUcSScGEnjRAHkHzcu0g-42" value="RabbitMQ" style="text;html=1;align=left;verticalAlign=top;spacingTop=-4;fontSize=10;fontFamily=Verdana" vertex="1" parent="1">
          <mxGeometry x="360.5" y="990" width="120" height="25.5" as="geometry" />
        </mxCell>
        <mxCell id="RUcSScGEnjRAHkHzcu0g-50" style="edgeStyle=elbowEdgeStyle;rounded=0;jumpSize=10;orthogonalLoop=1;jettySize=auto;elbow=vertical;html=1;entryX=0.92;entryY=1.004;entryDx=0;entryDy=0;entryPerimeter=0;dashed=1;startArrow=open;startFill=0;startSize=10;endArrow=open;endFill=0;endSize=10;targetPerimeterSpacing=0;strokeWidth=1;exitX=0.499;exitY=0.176;exitDx=0;exitDy=0;exitPerimeter=0;" edge="1" parent="1" source="RUcSScGEnjRAHkHzcu0g-45" target="6e0c8c40b5770093-33">
          <mxGeometry relative="1" as="geometry">
            <Array as="points">
              <mxPoint x="880" y="880" />
            </Array>
          </mxGeometry>
        </mxCell>
        <mxCell id="RUcSScGEnjRAHkHzcu0g-45" value="&lt;pre&gt;&lt;code&gt;&lt;br&gt;&lt;br&gt;&lt;br&gt;&lt;br&gt;&lt;br&gt;&lt;br&gt;&lt;br&gt;&lt;br&gt;&lt;br&gt;&amp;lt;?&lt;br/&gt;$m = new Memcache;&lt;br/&gt;$m-&amp;gt;addServer(&lt;b&gt;&#39;10.5.0.1&#39;&lt;/b&gt;);&lt;br/&gt;$m-&amp;gt;addServer(&lt;b&gt;&#39;10.5.0.2&#39;&lt;/b&gt;);&lt;br/&gt;...&lt;br/&gt;$m-&amp;gt;get(&#39;user1&#39;)&lt;/code&gt;&lt;/pre&gt;" style="shape=folder;fontStyle=1;spacingTop=10;tabWidth=123;tabHeight=24;tabPosition=left;html=1;rounded=0;shadow=0;comic=0;labelBackgroundColor=none;strokeWidth=1;fontFamily=Verdana;fontSize=10;align=center;" vertex="1" parent="1">
          <mxGeometry x="840" y="910" width="332" height="210" as="geometry" />
        </mxCell>
        <mxCell id="RUcSScGEnjRAHkHzcu0g-46" value="Balancer" style="shape=folder;fontStyle=1;spacingTop=10;tabWidth=50;tabHeight=17;tabPosition=left;html=1;rounded=0;shadow=0;comic=0;labelBackgroundColor=none;strokeWidth=1;fontFamily=Verdana;fontSize=10;align=center;" vertex="1" parent="1">
          <mxGeometry x="858" y="950" width="112" height="70" as="geometry" />
        </mxCell>
        <mxCell id="RUcSScGEnjRAHkHzcu0g-47" value="Balancer" style="shape=folder;fontStyle=1;spacingTop=10;tabWidth=50;tabHeight=17;tabPosition=left;html=1;rounded=0;shadow=0;comic=0;labelBackgroundColor=none;strokeWidth=1;fontFamily=Verdana;fontSize=10;align=center;" vertex="1" parent="1">
          <mxGeometry x="1027" y="950" width="112" height="70" as="geometry" />
        </mxCell>
        <mxCell id="RUcSScGEnjRAHkHzcu0g-48" value="MemcacheD" style="text;html=1;align=left;verticalAlign=top;spacingTop=-4;fontSize=10;fontFamily=Verdana" vertex="1" parent="1">
          <mxGeometry x="841" y="910" width="120" height="25.5" as="geometry" />
        </mxCell>
        <mxCell id="RUcSScGEnjRAHkHzcu0g-55" style="edgeStyle=elbowEdgeStyle;rounded=0;jumpSize=10;orthogonalLoop=1;jettySize=auto;elbow=vertical;html=1;entryX=0.527;entryY=1.004;entryDx=0;entryDy=0;entryPerimeter=0;dashed=1;startArrow=open;startFill=0;startSize=10;endArrow=open;endFill=0;endSize=10;targetPerimeterSpacing=0;strokeWidth=1;exitX=0.531;exitY=0.195;exitDx=0;exitDy=0;exitPerimeter=0;" edge="1" parent="1" source="RUcSScGEnjRAHkHzcu0g-51" target="6e0c8c40b5770093-33">
          <mxGeometry relative="1" as="geometry">
            <Array as="points">
              <mxPoint x="640" y="760" />
            </Array>
          </mxGeometry>
        </mxCell>
        <mxCell id="RUcSScGEnjRAHkHzcu0g-51" value="" style="shape=folder;fontStyle=1;spacingTop=10;tabWidth=123;tabHeight=24;tabPosition=left;html=1;rounded=0;shadow=0;comic=0;labelBackgroundColor=none;strokeWidth=1;fontFamily=Verdana;fontSize=10;align=center;" vertex="1" parent="1">
          <mxGeometry x="457.5" y="790" width="332" height="130" as="geometry" />
        </mxCell>
        <mxCell id="RUcSScGEnjRAHkHzcu0g-52" value="SQL 1" style="shape=folder;fontStyle=1;spacingTop=10;tabWidth=50;tabHeight=17;tabPosition=left;html=1;rounded=0;shadow=0;comic=0;labelBackgroundColor=none;strokeWidth=1;fontFamily=Verdana;fontSize=10;align=center;" vertex="1" parent="1">
          <mxGeometry x="475.5" y="830" width="112" height="70" as="geometry" />
        </mxCell>
        <mxCell id="RUcSScGEnjRAHkHzcu0g-53" value="SQL 2" style="shape=folder;fontStyle=1;spacingTop=10;tabWidth=50;tabHeight=17;tabPosition=left;html=1;rounded=0;shadow=0;comic=0;labelBackgroundColor=none;strokeWidth=1;fontFamily=Verdana;fontSize=10;align=center;" vertex="1" parent="1">
          <mxGeometry x="644.5" y="830" width="112" height="70" as="geometry" />
        </mxCell>
        <mxCell id="RUcSScGEnjRAHkHzcu0g-54" value="MySQLServer" style="text;html=1;align=left;verticalAlign=top;spacingTop=-4;fontSize=10;fontFamily=Verdana" vertex="1" parent="1">
          <mxGeometry x="458.5" y="790" width="120" height="25.5" as="geometry" />
        </mxCell>
      </root>
    </mxGraphModel>
  </diagram>
</mxfile>
